<?xml version="1.0" encoding="iso-8859-1"?>
<!-- Generator: Adobe Illustrator 17.1.0, SVG Export Plug-In . SVG Version: 6.00 Build 0)  -->
<!DOCTYPE svg PUBLIC "-//W3C//DTD SVG 1.1//EN" "http://www.w3.org/Graphics/SVG/1.1/DTD/svg11.dtd">
<svg version="1.1" id="Capa_1" xmlns="http://www.w3.org/2000/svg" xmlns:xlink="http://www.w3.org/1999/xlink" x="0px" y="0px"
	 viewBox="0 0 391.001 391.001" style="enable-background:new 0 0 391.001 391.001;" xml:space="preserve">
<path d="M300.195,66h-61.114l-4.215-21.916c-0.782-4.067-4.712-6.733-8.781-5.949c-4.068,0.782-6.731,4.714-5.949,8.781L223.805,66
	h-20.805V7.5c0-4.142-3.357-7.5-7.5-7.5c-4.142,0-7.5,3.358-7.5,7.5V66h-20.805l3.67-19.084c0.782-4.067-1.881-7.999-5.949-8.781
	c-4.067-0.782-7.999,1.881-8.782,5.949L151.921,66H90.806c-4.142,0-7.5,3.358-7.5,7.5v145c0,4.142,3.358,7.5,7.5,7.5h30.074
	L91.78,382.125c-0.759,4.072,1.927,7.989,5.998,8.747c0.465,0.087,0.927,0.129,1.383,0.129c3.542,0,6.692-2.52,7.365-6.127
	L120.296,311h67.705v22.5c0,4.142,3.358,7.5,7.5,7.5c4.143,0,7.5-3.358,7.5-7.5V311h68.011l13.77,73.875
	c0.673,3.607,3.823,6.127,7.364,6.127c0.456,0,0.919-0.042,1.383-0.129c4.072-0.759,6.758-4.675,5.999-8.747L270.427,226h29.768
	c4.143,0,7.5-3.358,7.5-7.5v-145C307.695,69.358,304.338,66,300.195,66z M123.092,296l13.048-70h51.861v70H123.092z M268.216,296
	h-65.215v-70h52.167L268.216,296z M292.695,211H98.306V81h194.389V211z"/>
<g>
</g>
<g>
</g>
<g>
</g>
<g>
</g>
<g>
</g>
<g>
</g>
<g>
</g>
<g>
</g>
<g>
</g>
<g>
</g>
<g>
</g>
<g>
</g>
<g>
</g>
<g>
</g>
<g>
</g>
</svg>
